# xmcd
#
# Track frame offsets: 
#        150
#        12324
#        24333
#        39320
#        51886
#        74921
#        98323
#        111667
#        133148
#        147425
#        162233
#        186798
#
# Disc length: 2753 seconds
#
# Revision: 0
# Processed by: cddbd v1.5.2PL0 Copyright (c) Steve Scherf et al.
# Submitted via: ExactAudioCopyFreeDBPlugin 1.0
#
DISCID=a90abf0c
DTITLE=Parr, Charlie - Too Much Liquor, Not Enough Gasoline
DYEAR=2009
DGENRE=Blues
TTITLE0=1922 Blues
TTITLE1=Mahtowa Stomp
TTITLE2=Hogkill Blues
TTITLE3=Rooster
TTITLE4=Dead Cat on the Line
TTITLE5=Cheap Wine
TTITLE6=Jubilee (feat. Emily Parr)
TTITLE7=Twenty Nine (feat. Christian McShane)
TTITLE8=You Can't Win
TTITLE9=Last Freight Out of Ashville
TTITLE10=Possessed by the Devil
TTITLE11=King Earl
EXTD=
EXTT0=
EXTT1=
EXTT2=
EXTT3=
EXTT4=
EXTT5=
EXTT6=
EXTT7=
EXTT8=
EXTT9=
EXTT10=
EXTT11=
PLAYORDER=
